PathFileType	4	(X/Y/Z)	67_2_66_p1_0-373.trc
DataRate	CameraRate	NumFrames	NumMarkers	Units	OrigDataRate	OrigDataStartFrame	OrigNumFrames
59.0	59.0	5	27	m	59.0	93	374
Frame#	Time	RHip			RKnee			RAnkle			RBigToe			RSmallToe			RHeel			LHip			LKnee			LAnkle			LBigToe			LSmallToe			LHeel			Neck			Head			Nose			RShoulder			RElbow			RWrist			RThumb			RIndex			RPinky			LShoulder			LElbow			LWrist			LThumb			LIndex			LPinky			
		X1	Y1	Z1	X2	Y2	Z2	X3	Y3	Z3	X4	Y4	Z4	X5	Y5	Z5	X6	Y6	Z6	X7	Y7	Z7	X8	Y8	Z8	X9	Y9	Z9	X10	Y10	Z10	X11	Y11	Z11	X12	Y12	Z12	X13	Y13	Z13	X14	Y14	Z14	X15	Y15	Z15	X16	Y16	Z16	X17	Y17	Z17	X18	Y18	Z18	X19	Y19	Z19	X20	Y20	Z20	X21	Y21	Z21	X22	Y22	Z22	X23	Y23	Z23	X24	Y24	Z24	X25	Y25	Z25	X26	Y26	Z26	X27	Y27	Z27	
93	1.576271186440678	0.3902922583738437	0.46913239904026555	-0.07632458433326512	0.3934908322658967	0.6741081659180437	0.3311512370922753	0.3916701888410028	0.8321037923263167	0.7248399804193528	0.3576974331309229	0.6700174574566464	0.793763521209271	0.4193781085383449	0.6909329869560925	0.789829561762862	0.36710544377644444	0.8824988459287515	0.7748161505793644	0.21952939376359804	0.48327797885235024	-0.07678662651262708	0.19998000794876977	0.6385529023411339	0.3265251698295608	0.15869108223950584	0.819134504222243	0.7238041239407786	0.18591324591729833	0.673749277364713	0.8031394035901077	0.12951114736600913	0.7044850984280284	0.79531223257825	0.1689949157636828	0.8539922651129378	0.7730393561435314	0.2956087674347487	0.34752410937365286	-0.5863390418142802	0.31660686604962796	0.25103473620091854	-0.8010364452981925	0.29408064750503116	0.20443086939982272	-0.6709714827073258	0.4304713903423154	0.364627339979398	-0.4912755148894597	0.4671371210391526	0.4402985620530942	-0.23939787372905272	0.5884299865389717	0.31348181608500814	-0.3185302345810155	0.6252167168503506	0.2653729170270661	-0.3558220956753767	0.6491834034075663	0.25422710933766096	-0.338044525821321	0.638720085901483	0.29611015762226106	-0.31829959991602697	0.14747945790385758	0.3571347839253887	-0.4950228551418216	0.07134849472560711	0.47534499876912667	-0.2753572934651002	-0.007836823863283184	0.3253711772582486	-0.37924355419769595	-0.06764798321982014	0.2865472797869013	-0.4092270777084614	-0.08239685409340769	0.25583400613416807	-0.4165866938150721	-0.10187657040418908	0.24422074589408715	-0.3813413408443344
94	1.5932203389830508	0.39048025165436184	0.46893509931599175	-0.07642672547295225	0.39306402048197014	0.6751097144666756	0.3393299084002149	0.3916894576548282	0.8320609309490659	0.7247314519327083	0.35763332701163836	0.6698196571067053	0.793604784427552	0.42020256034238124	0.6891746928411785	0.7849422462501946	0.37092548094436617	0.8986513295990333	0.77869101586646	0.21960129128002756	0.48314228720151275	-0.07686075356456212	0.19938101828619076	0.6358375053542392	0.3177923900847448	0.15793215166034522	0.8158964438913181	0.7187099016780374	0.18592645677495329	0.6739179447454848	0.8031184067590657	0.12950791139278778	0.7042122721901783	0.7951821432603516	0.16904067771063863	0.854383860010389	0.7728110072875524	0.295566178072969	0.34771901446869047	-0.5863347939893176	0.3276294941945291	0.25166929032734286	-0.8010921010897799	0.2984362207239171	0.20476817883189183	-0.67459565785748	0.4304608505568568	0.3645453605548976	-0.4911982272319439	0.4668282182020855	0.4384157524313034	-0.24311457377810317	0.5883622039938572	0.3149246073989921	-0.311396711627674	0.6185589353928324	0.26395284634364596	-0.3436624954833453	0.6547585243761478	0.24167927313956583	-0.33243351458385245	0.6536172410759448	0.3221314698527583	-0.31659171241625544	0.14747062950779571	0.35766515856207814	-0.4951785296612421	0.07114702546447568	0.4748224839736932	-0.279373726792318	-0.0010751551656934576	0.3252143814702646	-0.38326343683214126	-0.07270706968103936	0.2954832869961183	-0.4213372983255605	-0.08043525893061493	0.26547930086785515	-0.4246912504310873	-0.0929460024625134	0.2357673734723184	-0.38089205852364416
95	1.6101694915254237	0.3949318689653423	0.46738523381240304	-0.08414214281929189	0.39267897983026867	0.6752829002079868	0.33530294766364704	0.3880434620028773	0.8165749073657543	0.7210992967379488	0.35766053454956603	0.6699903799546818	0.7938053613825204	0.4202988101065846	0.6893295013559098	0.7850392372650047	0.36710067891989984	0.8827995509768879	0.7750513563232405	0.22022620822245662	0.4822770973108716	-0.08060385084162323	0.19979256006823004	0.638541437425704	0.3226440102885352	0.1584405951029545	0.8197027632928118	0.7198123108603203	0.18555322604760988	0.6743032144365334	0.7989991662243344	0.12958700380395155	0.7044744830071121	0.7951956647848166	0.16901201392579404	0.854246251706511	0.7728655027598977	0.2909171770787739	0.3603265616881819	-0.5919333607526914	0.32792901855338746	0.2518295842905058	-0.8011346741747687	0.3026113013675316	0.20485327949048954	-0.6782259796310839	0.43056664822714164	0.364809410552139	-0.487540905246672	0.46750601664362407	0.44082746167036524	-0.23940566442609268	0.5892838974080448	0.3164942459051004	-0.3077857460638115	0.6269551272570011	0.25393393879887044	-0.33626089858662994	0.6563214351749925	0.2423537544185651	-0.3277570144537591	0.6586375629675717	0.27994612524734386	-0.29969158127662615	0.147869664604311	0.3570241679768966	-0.49864223628835874	0.06594625208677882	0.48833168967048773	-0.27613527757435863	0.003311557830773136	0.29936237817055417	-0.3842709467721607	-0.06728288809070561	0.2810446147046818	-0.42044657729872076	-0.07981685266413995	0.26255692904279515	-0.42793356047413217	-0.09552130010866809	0.2470915752525073	-0.38981028863185757
96	1.6271186440677967	0.3982612442234139	0.48166499886746	-0.08407030031384943	0.3932348264136826	0.6738926893440231	0.3309361957729012	0.3892510692023065	0.8187006373179695	0.7302267242237312	0.35895110812369224	0.6718954886440538	0.8025373584781653	0.4179936480751535	0.6777118843199263	0.7854869303060575	0.37273759499203696	0.863127526264799	0.7741342693765108	0.2197244490590085	0.47982049391383286	-0.08865944333573895	0.19888329923790343	0.6396654585415616	0.3263606532460159	0.15845108088235668	0.819489425127782	0.7199061072474608	0.18552601104370847	0.6742246792481607	0.799148994151691	0.12961626995351014	0.7045701438773917	0.795260609544999	0.16909325416653292	0.8533487569519278	0.7729490456141871	0.29565465131954277	0.3477457082544954	-0.5863107657944922	0.3307936059317853	0.2623126501817642	-0.8035922031441115	0.30690983715094194	0.20685374205803614	-0.6754905547974268	0.43056478586219843	0.36485013933445903	-0.4874431431702119	0.4671587966551145	0.44079443960996717	-0.23942029141472834	0.5901452041814219	0.3211873568288472	-0.2976460748795314	0.6421190264571719	0.2803387904817696	-0.3332579095175582	0.672754828157	0.2771040319803702	-0.3234206308115215	0.6479002073399454	0.3101201904423067	-0.29755840286199886	0.14790197616925588	0.35728375542104523	-0.4988106883798815	0.06511910215934498	0.48922802325207987	-0.2765635879223259	-0.0025495628736331975	0.3092328119026983	-0.38904274880803846	-0.0662102617112904	0.26440911579146403	-0.4272277423847861	-0.08522844939552707	0.24695779760023515	-0.42647133357899614	-0.09386524317558091	0.2597612146756931	-0.3918148931459545
97	1.6440677966101696	0.39818096824526067	0.4817327906194647	-0.08400933480219239	0.39364549950382016	0.6741854984883544	0.33511889920775567	0.3892239216901797	0.8187023959109102	0.7302501140162634	0.3589307272311384	0.6718852229384514	0.80270446587054	0.41883262528223747	0.6804503217764474	0.7897013249850595	0.3726781382102321	0.863052427323959	0.773999774583487	0.21992043208733714	0.4799815490639763	-0.08493241138500515	0.198849924814045	0.6395885822825712	0.3263601448772133	0.1584392244469792	0.8194157204882413	0.7199392318876693	0.1859437479012127	0.6736838090847215	0.8034495533790761	0.12944363889683683	0.7047694314389407	0.7955227208349441	0.16911245438044037	0.8535622183365134	0.7729409987064175	0.2957374145246433	0.3472598885075216	-0.5862839544947485	0.33105718677191714	0.26385134440823316	-0.8006358736754591	0.30974765162122203	0.2180157870218717	-0.6777490896643161	0.43058143210273897	0.3645881754885901	-0.48744522632361065	0.4668190901723976	0.43882555873777523	-0.24322129999372866	0.594620858565574	0.3348248610987567	-0.29084137561136864	0.6463002014251676	0.26659405894882376	-0.3279878132783005	0.6750878562027243	0.2642386261846764	-0.3222677743886671	0.6561964709236736	0.3247127568661875	-0.288215290558718	0.14785133070008216	0.3567565403479987	-0.4987310062059414	0.06512186199451328	0.4894250299067138	-0.27666436786216364	-0.0009666592503802424	0.32232159094038737	-0.39030852714851727	-0.06606311927052735	0.2645240053470335	-0.4303581621121828	-0.08404109444467707	0.25879050940073767	-0.43175551365959675	-0.09987893402291756	0.2706654911949728	-0.3963192528785661
